{
	"asset":{
		"generator":"Khronos glTF Blender I/O v4.0.44",
		"version":"2.0"
	},
	"scene":0,
	"scenes":[
		{
			"name":"Scene",
			"nodes":[
				0
			]
		}
	],
	"nodes":[
		{
			"mesh":0,
			"name":"Cube",
			"rotation":[
				0.025908198207616806,
				0,
				0,
				0.9996644258499146
			],
			"translation":[
				0,
				-0.5825512409210205,
				-0.03021613135933876
			]
		}
	],
	"animations":[
		{
			"channels":[
				{
					"sampler":0,
					"target":{
						"node":0,
						"path":"translation"
					}
				},
				{
					"sampler":1,
					"target":{
						"node":0,
						"path":"rotation"
					}
				},
				{
					"sampler":2,
					"target":{
						"node":0,
						"path":"scale"
					}
				}
			],
			"name":"CubeAction",
			"samplers":[
				{
					"input":10,
					"interpolation":"LINEAR",
					"output":11
				},
				{
					"input":10,
					"interpolation":"LINEAR",
					"output":12
				},
				{
					"input":13,
					"interpolation":"STEP",
					"output":14
				}
			]
		}
	],
	"materials":[
		{
			"doubleSided":true,
			"name":"Crowbar Red",
			"pbrMetallicRoughness":{
				"baseColorFactor":[
					0.8002194166183472,
					0.05797860771417618,
					0.07155962288379669,
					1
				],
				"metallicFactor":0,
				"roughnessFactor":0.5
			}
		},
		{
			"doubleSided":true,
			"name":"Metal Grey",
			"pbrMetallicRoughness":{
				"baseColorFactor":[
					0.3642672300338745,
					0.4927128255367279,
					0.5049753785133362,
					1
				],
				"metallicFactor":0,
				"roughnessFactor":0.5
			}
		}
	],
	"meshes":[
		{
			"name":"Cube",
			"primitives":[
				{
					"attributes":{
						"POSITION":0,
						"NORMAL":1,
						"TEXCOORD_0":2,
						"TANGENT":3
					},
					"indices":4,
					"material":0
				},
				{
					"attributes":{
						"POSITION":5,
						"NORMAL":6,
						"TEXCOORD_0":7,
						"TANGENT":8
					},
					"indices":9,
					"material":1
				}
			]
		}
	],
	"accessors":[
		{
			"bufferView":0,
			"componentType":5126,
			"count":16,
			"max":[
				0.2590830326080322,
				4.902830123901367,
				0.5595508813858032
			],
			"min":[
				-0.2590830326080322,
				-1.922837495803833,
				-1.0675041675567627
			],
			"type":"VEC3"
		},
		{
			"bufferView":1,
			"componentType":5126,
			"count":16,
			"type":"VEC3"
		},
		{
			"bufferView":2,
			"componentType":5126,
			"count":16,
			"type":"VEC2"
		},
		{
			"bufferView":3,
			"componentType":5126,
			"count":16,
			"type":"VEC4"
		},
		{
			"bufferView":4,
			"componentType":5123,
			"count":24,
			"type":"SCALAR"
		},
		{
			"bufferView":5,
			"componentType":5126,
			"count":98,
			"max":[
				0.2590830326080322,
				6.14365816116333,
				1.8547351360321045
			],
			"min":[
				-0.2590830326080322,
				-6.284027099609375,
				-1.0766501426696777
			],
			"type":"VEC3"
		},
		{
			"bufferView":6,
			"componentType":5126,
			"count":98,
			"type":"VEC3"
		},
		{
			"bufferView":7,
			"componentType":5126,
			"count":98,
			"type":"VEC2"
		},
		{
			"bufferView":8,
			"componentType":5126,
			"count":98,
			"type":"VEC4"
		},
		{
			"bufferView":9,
			"componentType":5123,
			"count":162,
			"type":"SCALAR"
		},
		{
			"bufferView":10,
			"componentType":5126,
			"count":10,
			"max":[
				0.4166666666666667
			],
			"min":[
				0.041666666666666664
			],
			"type":"SCALAR"
		},
		{
			"bufferView":11,
			"componentType":5126,
			"count":10,
			"type":"VEC3"
		},
		{
			"bufferView":12,
			"componentType":5126,
			"count":10,
			"type":"VEC4"
		},
		{
			"bufferView":13,
			"componentType":5126,
			"count":2,
			"max":[
				0.4166666666666667
			],
			"min":[
				0.041666666666666664
			],
			"type":"SCALAR"
		},
		{
			"bufferView":14,
			"componentType":5126,
			"count":2,
			"type":"VEC3"
		}
	],
	"bufferViews":[
		{
			"buffer":0,
			"byteLength":192,
			"byteOffset":0,
			"target":34962
		},
		{
			"buffer":0,
			"byteLength":192,
			"byteOffset":192,
			"target":34962
		},
		{
			"buffer":0,
			"byteLength":128,
			"byteOffset":384,
			"target":34962
		},
		{
			"buffer":0,
			"byteLength":256,
			"byteOffset":512,
			"target":34962
		},
		{
			"buffer":0,
			"byteLength":48,
			"byteOffset":768,
			"target":34963
		},
		{
			"buffer":0,
			"byteLength":1176,
			"byteOffset":816,
			"target":34962
		},
		{
			"buffer":0,
			"byteLength":1176,
			"byteOffset":1992,
			"target":34962
		},
		{
			"buffer":0,
			"byteLength":784,
			"byteOffset":3168,
			"target":34962
		},
		{
			"buffer":0,
			"byteLength":1568,
			"byteOffset":3952,
			"target":34962
		},
		{
			"buffer":0,
			"byteLength":324,
			"byteOffset":5520,
			"target":34963
		},
		{
			"buffer":0,
			"byteLength":40,
			"byteOffset":5844
		},
		{
			"buffer":0,
			"byteLength":120,
			"byteOffset":5884
		},
		{
			"buffer":0,
			"byteLength":160,
			"byteOffset":6004
		},
		{
			"buffer":0,
			"byteLength":8,
			"byteOffset":6164
		},
		{
			"buffer":0,
			"byteLength":24,
			"byteOffset":6172
		}
	],
	"buffers":[
		{
			"byteLength":6196,
			"uri":"Crowbar-aa1f2a526e9a9aa801eb48168f387cee.bin"
		}
	]
}
