{
	"asset":{
		"generator":"Khronos glTF Blender I/O v4.0.44",
		"version":"2.0"
	},
	"scene":0,
	"scenes":[
		{
			"name":"Scene",
			"nodes":[
				0
			]
		}
	],
	"nodes":[
		{
			"mesh":0,
			"name":"Cube"
		}
	],
	"materials":[
		{
			"doubleSided":true,
			"name":"Crowbar Red",
			"pbrMetallicRoughness":{
				"baseColorFactor":[
					0.8002194166183472,
					0.05797860771417618,
					0.07155962288379669,
					1
				],
				"metallicFactor":0,
				"roughnessFactor":0.5
			}
		},
		{
			"doubleSided":true,
			"name":"Metal Grey",
			"pbrMetallicRoughness":{
				"baseColorFactor":[
					0.800000011920929,
					0.800000011920929,
					0.800000011920929,
					1
				],
				"metallicFactor":0,
				"roughnessFactor":0.5
			}
		}
	],
	"meshes":[
		{
			"name":"Cube",
			"primitives":[
				{
					"attributes":{
						"POSITION":0,
						"NORMAL":1,
						"TEXCOORD_0":2,
						"TANGENT":3
					},
					"indices":4,
					"material":0
				},
				{
					"attributes":{
						"POSITION":5,
						"NORMAL":6,
						"TEXCOORD_0":7,
						"TANGENT":8
					},
					"indices":9,
					"material":1
				}
			]
		}
	],
	"accessors":[
		{
			"bufferView":0,
			"componentType":5126,
			"count":16,
			"max":[
				0.2590830326080322,
				4.902830123901367,
				0.5595508813858032
			],
			"min":[
				-0.2590830326080322,
				-1.922837495803833,
				-1.0675041675567627
			],
			"type":"VEC3"
		},
		{
			"bufferView":1,
			"componentType":5126,
			"count":16,
			"type":"VEC3"
		},
		{
			"bufferView":2,
			"componentType":5126,
			"count":16,
			"type":"VEC2"
		},
		{
			"bufferView":3,
			"componentType":5126,
			"count":16,
			"type":"VEC4"
		},
		{
			"bufferView":4,
			"componentType":5123,
			"count":24,
			"type":"SCALAR"
		},
		{
			"bufferView":5,
			"componentType":5126,
			"count":98,
			"max":[
				0.2590830326080322,
				6.14365816116333,
				1.8547351360321045
			],
			"min":[
				-0.2590830326080322,
				-6.284027099609375,
				-1.0766501426696777
			],
			"type":"VEC3"
		},
		{
			"bufferView":6,
			"componentType":5126,
			"count":98,
			"type":"VEC3"
		},
		{
			"bufferView":7,
			"componentType":5126,
			"count":98,
			"type":"VEC2"
		},
		{
			"bufferView":8,
			"componentType":5126,
			"count":98,
			"type":"VEC4"
		},
		{
			"bufferView":9,
			"componentType":5123,
			"count":162,
			"type":"SCALAR"
		}
	],
	"bufferViews":[
		{
			"buffer":0,
			"byteLength":192,
			"byteOffset":0,
			"target":34962
		},
		{
			"buffer":0,
			"byteLength":192,
			"byteOffset":192,
			"target":34962
		},
		{
			"buffer":0,
			"byteLength":128,
			"byteOffset":384,
			"target":34962
		},
		{
			"buffer":0,
			"byteLength":256,
			"byteOffset":512,
			"target":34962
		},
		{
			"buffer":0,
			"byteLength":48,
			"byteOffset":768,
			"target":34963
		},
		{
			"buffer":0,
			"byteLength":1176,
			"byteOffset":816,
			"target":34962
		},
		{
			"buffer":0,
			"byteLength":1176,
			"byteOffset":1992,
			"target":34962
		},
		{
			"buffer":0,
			"byteLength":784,
			"byteOffset":3168,
			"target":34962
		},
		{
			"buffer":0,
			"byteLength":1568,
			"byteOffset":3952,
			"target":34962
		},
		{
			"buffer":0,
			"byteLength":324,
			"byteOffset":5520,
			"target":34963
		}
	],
	"buffers":[
		{
			"byteLength":5844,
			"uri":"Crowbar-e23fd9a0a27d2c8d6088cb524f693d10.bin"
		}
	]
}
