{
	"asset":{
		"generator":"Khronos glTF Blender I/O v4.0.44",
		"version":"2.0"
	},
	"scene":0,
	"scenes":[
		{
			"name":"Scene",
			"nodes":[
				0,
				1,
				2,
				3,
				4
			]
		}
	],
	"nodes":[
		{
			"mesh":0,
			"name":"floor-col",
			"translation":[
				0,
				0,
				10
			]
		},
		{
			"mesh":1,
			"name":"corner_outer-col",
			"translation":[
				10,
				0,
				10
			]
		},
		{
			"mesh":2,
			"name":"corridor_entrance01-col"
		},
		{
			"mesh":3,
			"name":"corner_inner-col",
			"translation":[
				10,
				0,
				0
			]
		},
		{
			"mesh":4,
			"name":"interior_wall-col",
			"translation":[
				-10,
				0,
				0
			]
		}
	],
	"materials":[
		{
			"doubleSided":true,
			"name":"floor.001",
			"pbrMetallicRoughness":{
				"baseColorTexture":{
					"index":0
				},
				"metallicFactor":0,
				"roughnessFactor":0.5
			}
		},
		{
			"doubleSided":true,
			"name":"wall",
			"pbrMetallicRoughness":{
				"baseColorTexture":{
					"index":1
				},
				"metallicFactor":0,
				"roughnessFactor":0.5
			}
		},
		{
			"doubleSided":true,
			"name":"floor",
			"pbrMetallicRoughness":{
				"baseColorTexture":{
					"index":2
				},
				"metallicFactor":0,
				"roughnessFactor":0.5
			}
		},
		{
			"doubleSided":true,
			"name":"floor",
			"pbrMetallicRoughness":{
				"baseColorTexture":{
					"index":3
				},
				"metallicFactor":0,
				"roughnessFactor":0.5
			}
		}
	],
	"meshes":[
		{
			"name":"Cube.001",
			"primitives":[
				{
					"attributes":{
						"POSITION":0,
						"NORMAL":1,
						"TEXCOORD_0":2,
						"TANGENT":3
					},
					"indices":4,
					"material":0
				}
			]
		},
		{
			"name":"Plane.001",
			"primitives":[
				{
					"attributes":{
						"POSITION":5,
						"NORMAL":6,
						"TEXCOORD_0":7,
						"TANGENT":8
					},
					"indices":9,
					"material":1
				},
				{
					"attributes":{
						"POSITION":10,
						"NORMAL":11,
						"TEXCOORD_0":12,
						"TANGENT":13
					},
					"indices":14,
					"material":2
				}
			]
		},
		{
			"name":"Cube.002",
			"primitives":[
				{
					"attributes":{
						"POSITION":15,
						"NORMAL":16,
						"TEXCOORD_0":17,
						"TANGENT":18
					},
					"indices":19,
					"material":3
				}
			]
		},
		{
			"name":"Plane",
			"primitives":[
				{
					"attributes":{
						"POSITION":20,
						"NORMAL":21,
						"TEXCOORD_0":22,
						"TANGENT":23
					},
					"indices":24,
					"material":2
				},
				{
					"attributes":{
						"POSITION":25,
						"NORMAL":26,
						"TEXCOORD_0":27,
						"TANGENT":28
					},
					"indices":29,
					"material":1
				}
			]
		},
		{
			"name":"Cube",
			"primitives":[
				{
					"attributes":{
						"POSITION":30,
						"NORMAL":31,
						"TEXCOORD_0":32,
						"TANGENT":33
					},
					"indices":34,
					"material":2
				},
				{
					"attributes":{
						"POSITION":35,
						"NORMAL":36,
						"TEXCOORD_0":37,
						"TANGENT":38
					},
					"indices":39,
					"material":1
				}
			]
		}
	],
	"textures":[
		{
			"sampler":0,
			"source":0
		},
		{
			"sampler":0,
			"source":0
		},
		{
			"sampler":0,
			"source":1
		},
		{
			"sampler":0,
			"source":1
		}
	],
	"images":[
		{
			"mimeType":"image/png",
			"name":"texture_02.png",
			"uri":"../../assets/tilesets/test_tileset/textures/texture_02.png"
		},
		{
			"mimeType":"image/png",
			"name":"texture_06.png",
			"uri":"../../assets/tilesets/test_tileset/textures/texture_06.png"
		}
	],
	"accessors":[
		{
			"bufferView":0,
			"componentType":5126,
			"count":4,
			"max":[
				5,
				0,
				5
			],
			"min":[
				-5,
				0,
				-5
			],
			"type":"VEC3"
		},
		{
			"bufferView":1,
			"componentType":5126,
			"count":4,
			"type":"VEC3"
		},
		{
			"bufferView":2,
			"componentType":5126,
			"count":4,
			"type":"VEC2"
		},
		{
			"bufferView":3,
			"componentType":5126,
			"count":4,
			"type":"VEC4"
		},
		{
			"bufferView":4,
			"componentType":5123,
			"count":6,
			"type":"SCALAR"
		},
		{
			"bufferView":5,
			"componentType":5126,
			"count":20,
			"max":[
				5,
				5,
				0
			],
			"min":[
				0,
				2.384185791015625e-07,
				-5
			],
			"type":"VEC3"
		},
		{
			"bufferView":6,
			"componentType":5126,
			"count":20,
			"type":"VEC3"
		},
		{
			"bufferView":7,
			"componentType":5126,
			"count":20,
			"type":"VEC2"
		},
		{
			"bufferView":8,
			"componentType":5126,
			"count":20,
			"type":"VEC4"
		},
		{
			"bufferView":9,
			"componentType":5123,
			"count":30,
			"type":"SCALAR"
		},
		{
			"bufferView":10,
			"componentType":5126,
			"count":8,
			"max":[
				5,
				2.384185791015625e-07,
				5
			],
			"min":[
				-5,
				2.384185791015625e-07,
				-5
			],
			"type":"VEC3"
		},
		{
			"bufferView":11,
			"componentType":5126,
			"count":8,
			"type":"VEC3"
		},
		{
			"bufferView":12,
			"componentType":5126,
			"count":8,
			"type":"VEC2"
		},
		{
			"bufferView":13,
			"componentType":5126,
			"count":8,
			"type":"VEC4"
		},
		{
			"bufferView":14,
			"componentType":5123,
			"count":18,
			"type":"SCALAR"
		},
		{
			"bufferView":15,
			"componentType":5126,
			"count":100,
			"max":[
				5,
				5,
				5
			],
			"min":[
				-5,
				0,
				-5
			],
			"type":"VEC3"
		},
		{
			"bufferView":16,
			"componentType":5126,
			"count":100,
			"type":"VEC3"
		},
		{
			"bufferView":17,
			"componentType":5126,
			"count":100,
			"type":"VEC2"
		},
		{
			"bufferView":18,
			"componentType":5126,
			"count":100,
			"type":"VEC4"
		},
		{
			"bufferView":19,
			"componentType":5123,
			"count":192,
			"type":"SCALAR"
		},
		{
			"bufferView":20,
			"componentType":5126,
			"count":20,
			"max":[
				5,
				5,
				5
			],
			"min":[
				-5,
				0,
				-5
			],
			"type":"VEC3"
		},
		{
			"bufferView":21,
			"componentType":5126,
			"count":20,
			"type":"VEC3"
		},
		{
			"bufferView":22,
			"componentType":5126,
			"count":20,
			"type":"VEC2"
		},
		{
			"bufferView":23,
			"componentType":5126,
			"count":20,
			"type":"VEC4"
		},
		{
			"bufferView":24,
			"componentType":5123,
			"count":36,
			"type":"SCALAR"
		},
		{
			"bufferView":25,
			"componentType":5126,
			"count":24,
			"max":[
				5,
				5,
				5
			],
			"min":[
				-5,
				0,
				-5
			],
			"type":"VEC3"
		},
		{
			"bufferView":26,
			"componentType":5126,
			"count":24,
			"type":"VEC3"
		},
		{
			"bufferView":27,
			"componentType":5126,
			"count":24,
			"type":"VEC2"
		},
		{
			"bufferView":28,
			"componentType":5126,
			"count":24,
			"type":"VEC4"
		},
		{
			"bufferView":29,
			"componentType":5123,
			"count":36,
			"type":"SCALAR"
		},
		{
			"bufferView":30,
			"componentType":5126,
			"count":4,
			"max":[
				5,
				0,
				5
			],
			"min":[
				-5,
				0,
				-4.371140676084906e-07
			],
			"type":"VEC3"
		},
		{
			"bufferView":31,
			"componentType":5126,
			"count":4,
			"type":"VEC3"
		},
		{
			"bufferView":32,
			"componentType":5126,
			"count":4,
			"type":"VEC2"
		},
		{
			"bufferView":33,
			"componentType":5126,
			"count":4,
			"type":"VEC4"
		},
		{
			"bufferView":34,
			"componentType":5123,
			"count":6,
			"type":"SCALAR"
		},
		{
			"bufferView":35,
			"componentType":5126,
			"count":20,
			"max":[
				5,
				5,
				4.371140676084906e-07
			],
			"min":[
				-5.000000476837158,
				-1.5258775931670243e-07,
				-5
			],
			"type":"VEC3"
		},
		{
			"bufferView":36,
			"componentType":5126,
			"count":20,
			"type":"VEC3"
		},
		{
			"bufferView":37,
			"componentType":5126,
			"count":20,
			"type":"VEC2"
		},
		{
			"bufferView":38,
			"componentType":5126,
			"count":20,
			"type":"VEC4"
		},
		{
			"bufferView":39,
			"componentType":5123,
			"count":30,
			"type":"SCALAR"
		}
	],
	"bufferViews":[
		{
			"buffer":0,
			"byteLength":48,
			"byteOffset":0,
			"target":34962
		},
		{
			"buffer":0,
			"byteLength":48,
			"byteOffset":48,
			"target":34962
		},
		{
			"buffer":0,
			"byteLength":32,
			"byteOffset":96,
			"target":34962
		},
		{
			"buffer":0,
			"byteLength":64,
			"byteOffset":128,
			"target":34962
		},
		{
			"buffer":0,
			"byteLength":12,
			"byteOffset":192,
			"target":34963
		},
		{
			"buffer":0,
			"byteLength":240,
			"byteOffset":204,
			"target":34962
		},
		{
			"buffer":0,
			"byteLength":240,
			"byteOffset":444,
			"target":34962
		},
		{
			"buffer":0,
			"byteLength":160,
			"byteOffset":684,
			"target":34962
		},
		{
			"buffer":0,
			"byteLength":320,
			"byteOffset":844,
			"target":34962
		},
		{
			"buffer":0,
			"byteLength":60,
			"byteOffset":1164,
			"target":34963
		},
		{
			"buffer":0,
			"byteLength":96,
			"byteOffset":1224,
			"target":34962
		},
		{
			"buffer":0,
			"byteLength":96,
			"byteOffset":1320,
			"target":34962
		},
		{
			"buffer":0,
			"byteLength":64,
			"byteOffset":1416,
			"target":34962
		},
		{
			"buffer":0,
			"byteLength":128,
			"byteOffset":1480,
			"target":34962
		},
		{
			"buffer":0,
			"byteLength":36,
			"byteOffset":1608,
			"target":34963
		},
		{
			"buffer":0,
			"byteLength":1200,
			"byteOffset":1644,
			"target":34962
		},
		{
			"buffer":0,
			"byteLength":1200,
			"byteOffset":2844,
			"target":34962
		},
		{
			"buffer":0,
			"byteLength":800,
			"byteOffset":4044,
			"target":34962
		},
		{
			"buffer":0,
			"byteLength":1600,
			"byteOffset":4844,
			"target":34962
		},
		{
			"buffer":0,
			"byteLength":384,
			"byteOffset":6444,
			"target":34963
		},
		{
			"buffer":0,
			"byteLength":240,
			"byteOffset":6828,
			"target":34962
		},
		{
			"buffer":0,
			"byteLength":240,
			"byteOffset":7068,
			"target":34962
		},
		{
			"buffer":0,
			"byteLength":160,
			"byteOffset":7308,
			"target":34962
		},
		{
			"buffer":0,
			"byteLength":320,
			"byteOffset":7468,
			"target":34962
		},
		{
			"buffer":0,
			"byteLength":72,
			"byteOffset":7788,
			"target":34963
		},
		{
			"buffer":0,
			"byteLength":288,
			"byteOffset":7860,
			"target":34962
		},
		{
			"buffer":0,
			"byteLength":288,
			"byteOffset":8148,
			"target":34962
		},
		{
			"buffer":0,
			"byteLength":192,
			"byteOffset":8436,
			"target":34962
		},
		{
			"buffer":0,
			"byteLength":384,
			"byteOffset":8628,
			"target":34962
		},
		{
			"buffer":0,
			"byteLength":72,
			"byteOffset":9012,
			"target":34963
		},
		{
			"buffer":0,
			"byteLength":48,
			"byteOffset":9084,
			"target":34962
		},
		{
			"buffer":0,
			"byteLength":48,
			"byteOffset":9132,
			"target":34962
		},
		{
			"buffer":0,
			"byteLength":32,
			"byteOffset":9180,
			"target":34962
		},
		{
			"buffer":0,
			"byteLength":64,
			"byteOffset":9212,
			"target":34962
		},
		{
			"buffer":0,
			"byteLength":12,
			"byteOffset":9276,
			"target":34963
		},
		{
			"buffer":0,
			"byteLength":240,
			"byteOffset":9288,
			"target":34962
		},
		{
			"buffer":0,
			"byteLength":240,
			"byteOffset":9528,
			"target":34962
		},
		{
			"buffer":0,
			"byteLength":160,
			"byteOffset":9768,
			"target":34962
		},
		{
			"buffer":0,
			"byteLength":320,
			"byteOffset":9928,
			"target":34962
		},
		{
			"buffer":0,
			"byteLength":60,
			"byteOffset":10248,
			"target":34963
		}
	],
	"samplers":[
		{
			"magFilter":9729,
			"minFilter":9987
		}
	],
	"buffers":[
		{
			"byteLength":10308,
			"uri":"test_tileset-c43735d441bc7ef5269b3d444f621a1e.bin"
		}
	]
}
